<?xml version="1.0" encoding="UTF-8" standalone="no"?>
<svg
   xmlns:dc="http://purl.org/dc/elements/1.1/"
   xmlns:cc="http://creativecommons.org/ns#"
   xmlns:rdf="http://www.w3.org/1999/02/22-rdf-syntax-ns#"
   xmlns:svg="http://www.w3.org/2000/svg"
   xmlns="http://www.w3.org/2000/svg"
   xmlns:xlink="http://www.w3.org/1999/xlink"
   xmlns:sodipodi="http://sodipodi.sourceforge.net/DTD/sodipodi-0.dtd"
   xmlns:inkscape="http://www.inkscape.org/namespaces/inkscape"
   inkscape:version="1.0 (4035a4fb49, 2020-05-01)"
   sodipodi:docname="Facebook Messenger Oldest Logo.svg"
   viewBox="0 0 512 512"
   height="512"
   width="512"
   id="svg104"
   version="1.1">
  <metadata
     id="metadata110">
    <rdf:RDF>
      <cc:Work
         rdf:about="">
        <dc:format>image/svg+xml</dc:format>
        <dc:type
           rdf:resource="http://purl.org/dc/dcmitype/StillImage" />
        <dc:title></dc:title>
      </cc:Work>
    </rdf:RDF>
  </metadata>
  <defs
     id="defs108">
    <linearGradient
       id="linearGradient1559"
       inkscape:collect="always">
      <stop
         id="stop1555"
         offset="0"
         style="stop-color:#5d80cb;stop-opacity:1;" />
      <stop
         id="stop1557"
         offset="1"
         style="stop-color:#243d71;stop-opacity:1" />
    </linearGradient>
    <linearGradient
       id="linearGradient945"
       inkscape:collect="always">
      <stop
         id="stop941"
         offset="0"
         style="stop-color:#ffffff;stop-opacity:1;" />
      <stop
         id="stop943"
         offset="1"
         style="stop-color:#ebebee;stop-opacity:1" />
    </linearGradient>
    <linearGradient
       gradientUnits="userSpaceOnUse"
       y2="280.30368"
       x2="257.30682"
       y1="201.74811"
       x1="257.41611"
       id="linearGradient947"
       xlink:href="#linearGradient945"
       inkscape:collect="always" />
    <filter
       height="1.1047305"
       y="-0.052365249"
       width="1.047145"
       x="-0.023572512"
       id="filter1549"
       style="color-interpolation-filters:sRGB"
       inkscape:collect="always">
      <feGaussianBlur
         id="feGaussianBlur1551"
         stdDeviation="2.4561878"
         inkscape:collect="always" />
    </filter>
    <linearGradient
       gradientUnits="userSpaceOnUse"
       y2="435.25037"
       x2="263.73587"
       y1="91.703194"
       x1="263.09436"
       id="linearGradient1561"
       xlink:href="#linearGradient1559"
       inkscape:collect="always" />
    <filter
       height="1.0929052"
       y="-0.046452619"
       width="1.099308"
       x="-0.049654023"
       id="filter1587"
       style="color-interpolation-filters:sRGB"
       inkscape:collect="always">
      <feGaussianBlur
         id="feGaussianBlur1589"
         stdDeviation="7.8735977"
         inkscape:collect="always" />
    </filter>
  </defs>
  <sodipodi:namedview
     inkscape:current-layer="g112"
     inkscape:window-maximized="1"
     inkscape:window-y="-9"
     inkscape:window-x="-9"
     inkscape:cy="223.93612"
     inkscape:cx="248.24201"
     inkscape:zoom="1.1711456"
     showgrid="false"
     id="namedview106"
     inkscape:window-height="1001"
     inkscape:window-width="1920"
     inkscape:pageshadow="2"
     inkscape:pageopacity="0"
     guidetolerance="10"
     gridtolerance="10"
     objecttolerance="10"
     borderopacity="1"
     bordercolor="#666666"
     pagecolor="#ffffff" />
  <g
     id="g112"
     inkscape:label="Image"
     inkscape:groupmode="layer">
    <path
       transform="matrix(0.96918951,0,0,0.98373938,7.88109,7.5671104)"
       style="display:inline;fill:#000000;fill-opacity:1;stroke:none;stroke-width:1.00257px;stroke-linecap:butt;stroke-linejoin:miter;stroke-opacity:1;filter:url(#filter1587)"
       d="m 147.11043,381.61594 -0.39345,83.74829 107.81132,-84.24137 164.29238,0.0834 c 0,0 26.76423,-10.21064 27.06611,-30.69256 0.30189,-20.48192 0.15095,-262.62371 0.15095,-262.62371 0,0 -8.30189,-28.826414 -30.33963,-29.129854 -22.03773,-0.30343 -317.88678,-0.15171 -317.88678,-0.15171 0,0 -31.39623,6.37215 -31.84906,30.343584 -0.45283,23.97143 -0.45283,260.65139 -0.45283,260.65139 0,0 5.88888,31.07253 32.15094,31.40561 z"
       id="path1553-5"
       sodipodi:nodetypes="ccccscscsccc" />
    <path
       sodipodi:nodetypes="ccccscscsccc"
       id="path1553"
       d="m 147.11043,381.61594 -0.39345,83.74829 107.81132,-84.24137 164.29238,0.0834 c 0,0 26.76423,-10.21064 27.06611,-30.69256 0.30189,-20.48192 0.15095,-262.623713 0.15095,-262.623713 0,0 -8.30189,-28.826404 -30.33963,-29.129841 -22.03773,-0.303435 -317.886789,-0.151718 -317.886789,-0.151718 0,0 -31.396227,6.372154 -31.849057,30.343585 -0.45283,23.971427 -0.45283,260.651387 -0.45283,260.651387 0,0 5.888883,31.07253 32.150943,31.40561 z"
       style="display:inline;fill:url(#linearGradient1561);fill-opacity:1;stroke:none;stroke-width:1.00257px;stroke-linecap:butt;stroke-linejoin:miter;stroke-opacity:1" />
    <path
       transform="matrix(1.0256864,0,0,1.0569331,-6.0294631,-11.832318)"
       style="display:inline;opacity:0.2;fill:#000000;fill-opacity:1;stroke:none;stroke-width:1.0082px;stroke-linecap:butt;stroke-linejoin:miter;stroke-opacity:1;filter:url(#filter1549)"
       d="m 132.75185,276.7441 91.1763,-51.84372 56.34257,55.33412 102.55422,-111.76079 -95.60122,52.52668 -54.10531,-53.3377 z"
       id="path116-8"
       sodipodi:nodetypes="ccccccc" />
    <path
       sodipodi:nodetypes="ccccccc"
       id="path116"
       d="m 132.75185,276.7441 91.1763,-51.84372 56.34257,55.33412 102.55422,-111.76079 -95.60122,52.52668 -54.10531,-53.3377 z"
       style="display:inline;fill:url(#linearGradient947);fill-opacity:1;stroke:none;stroke-width:1.0082px;stroke-linecap:butt;stroke-linejoin:miter;stroke-opacity:1" />
  </g>
</svg>
